<svg width="40" height="40" viewBox="0 0 40 40"  xmlns="http://www.w3.org/2000/svg">
<path  fill="" d="M1.00895 16.6133L19.0005 28.8429C19.3044 29.0493 19.6491 29.158 20 29.158C20.3509 29.158 20.6956 29.0493 20.9995 28.8429L38.9911 16.6133C39.294 16.4066 39.5454 16.1099 39.7202 15.7528C39.895 15.3958 39.987 14.991 39.987 14.579C39.987 14.167 39.895 13.7622 39.7202 13.4052C39.5454 13.0481 39.294 12.7514 38.9911 12.5447L20.9995 0.315087C20.6956 0.10867 20.3509 0 20 0C19.6491 0 19.3044 0.10867 19.0005 0.315087L1.00895 12.5447C0.70601 12.7514 0.454555 13.0481 0.279759 13.4052C0.104962 13.7622 0.0129583 14.167 0.0129583 14.579C0.0129583 14.991 0.104962 15.3958 0.279759 15.7528C0.454555 16.1099 0.70601 16.4066 1.00895 16.6133V16.6133ZM20 5.06581L33.9934 14.4732L20 23.9981L6.00659 14.5672L20 5.06581ZM36.992 23.3867L20 34.9342L3.008 23.3867C2.78104 23.2302 2.53005 23.1279 2.26943 23.0858C2.00881 23.0437 1.74369 23.0625 1.48926 23.1411C1.23483 23.2198 0.996099 23.3568 0.786751 23.5442C0.577404 23.7316 0.401558 23.9658 0.269294 24.2333C0.137118 24.5017 0.0513862 24.7983 0.0170357 25.1058C-0.0173147 25.4134 0.000394859 25.7259 0.0691447 26.0254C0.137895 26.3249 0.256326 26.6054 0.417619 26.8508C0.578912 27.0963 0.779878 27.3017 1.00895 27.4553L19.0005 39.6849C19.3044 39.8913 19.6491 40 20 40C20.3509 40 20.6956 39.8913 20.9995 39.6849L38.9911 27.4553C39.2201 27.3017 39.4211 27.0963 39.5824 26.8508C39.7437 26.6054 39.8621 26.3249 39.9309 26.0254C39.9996 25.7259 40.0173 25.4134 39.983 25.1058C39.9486 24.7983 39.8629 24.5017 39.7307 24.2333C39.5984 23.9658 39.4226 23.7316 39.2132 23.5442C39.0039 23.3568 38.7652 23.2198 38.5107 23.1411C38.2563 23.0625 37.9912 23.0437 37.7306 23.0858C37.47 23.1279 37.219 23.2302 36.992 23.3867V23.3867Z"/>
<path  fill="" d="M25.3472 14.2361H20.7639V9.65277C20.7639 9.45018 20.6834 9.25588 20.5402 9.11262C20.3969 8.96937 20.2026 8.88889 20 8.88889C19.7974 8.88889 19.6031 8.96937 19.4599 9.11262C19.3166 9.25588 19.2361 9.45018 19.2361 9.65277V14.2361H14.6528C14.4502 14.2361 14.2559 14.3166 14.1126 14.4598C13.9694 14.6031 13.8889 14.7974 13.8889 15C13.8889 15.2026 13.9694 15.3969 14.1126 15.5401C14.2559 15.6834 14.4502 15.7639 14.6528 15.7639H19.2361V20.3472C19.2361 20.5498 19.3166 20.7441 19.4599 20.8874C19.6031 21.0306 19.7974 21.1111 20 21.1111C20.2026 21.1111 20.3969 21.0306 20.5402 20.8874C20.6834 20.7441 20.7639 20.5498 20.7639 20.3472V15.7639H25.3472C25.5498 15.7639 25.7441 15.6834 25.8874 15.5401C26.0306 15.3969 26.1111 15.2026 26.1111 15C26.1111 14.7974 26.0306 14.6031 25.8874 14.4598C25.7441 14.3166 25.5498 14.2361 25.3472 14.2361Z" />
</svg>
